<svg width="1000" height="1000" viewBox="0 0 1000 1000" fill="none" xmlns="http://www.w3.org/2000/svg">
<path d="M0 170C0 76.1116 76.1116 0 170 0H830C923.888 0 1000 76.1116 1000 170V830C1000 923.888 923.888 1000 830 1000H170C76.1116 1000 0 923.888 0 830V170Z" fill="#E8562E"/>
<ellipse cx="500" cy="749" rx="369" ry="87" fill="white"/>
<path fill-rule="evenodd" clip-rule="evenodd" d="M541.606 309.064C541.606 309.064 541.606 309.064 541.606 309.064L514.204 336.469C510.304 340.368 505.016 342.559 499.501 342.559C493.987 342.559 488.698 340.369 484.799 336.469L457.394 309.064C428.975 280.646 382.9 280.646 354.481 309.064C326.062 337.483 326.062 383.559 354.481 411.978L499.501 556.998L644.519 411.978L659.221 426.68L644.519 411.978C672.938 383.559 672.938 337.483 644.519 309.064C616.101 280.646 570.025 280.646 541.606 309.064ZM512.202 279.661C556.86 235.002 629.265 235.002 673.923 279.661C718.581 324.319 718.581 396.724 673.923 441.382L514.203 601.104C510.304 605.003 505.015 607.194 499.501 607.194C493.987 607.194 488.698 605.003 484.799 601.104L325.077 441.382C280.419 396.724 280.419 324.319 325.077 279.661C369.735 235.002 442.14 235.002 486.798 279.661L499.5 292.363L512.201 279.661L512.202 279.661Z" fill="white"/>
</svg>
